<mxfile host="65bd71144e">
    <diagram id="GInHtZuMB5CcCfA9ihm7" name="Page-1">
        <mxGraphModel dx="908" dy="661" grid="1" gridSize="10" guides="1" tooltips="1" connect="1" arrows="1" fold="1" page="1" pageScale="1" pageWidth="850" pageHeight="1100" math="0" shadow="0">
            <root>
                <mxCell id="0"/>
                <mxCell id="1" parent="0"/>
                <mxCell id="7" style="edgeStyle=none;html=1;" parent="1" source="2" target="3" edge="1">
                    <mxGeometry relative="1" as="geometry"/>
                </mxCell>
                <mxCell id="2" value="Start" style="strokeWidth=2;html=1;shape=mxgraph.flowchart.terminator;whiteSpace=wrap;" parent="1" vertex="1">
                    <mxGeometry x="300" y="260" width="100" height="60" as="geometry"/>
                </mxCell>
                <mxCell id="8" style="edgeStyle=none;html=1;" parent="1" source="3" target="4" edge="1">
                    <mxGeometry relative="1" as="geometry"/>
                </mxCell>
                <mxCell id="3" value="&lt;font style=&quot;font-size: 11px&quot;&gt;enter the radius&lt;/font&gt;" style="shape=parallelogram;html=1;strokeWidth=2;perimeter=parallelogramPerimeter;whiteSpace=wrap;rounded=1;arcSize=12;size=0.23;" parent="1" vertex="1">
                    <mxGeometry x="300" y="360" width="100" height="60" as="geometry"/>
                </mxCell>
                <mxCell id="9" style="edgeStyle=none;html=1;" parent="1" source="4" target="5" edge="1">
                    <mxGeometry relative="1" as="geometry"/>
                </mxCell>
                <mxCell id="4" value="&lt;div class=&quot;lr-fy-ecl lr-fy-eq-elem&quot; style=&quot;font-size: 15px ; display: inline-block ; position: relative ; transition: all 0.05s ease-in-out 0s ; font-style: italic ; color: rgb(189 , 193 , 198) ; font-family: &amp;#34;stixgeneral&amp;#34; , &amp;#34;georgia&amp;#34; ; background-color: rgb(32 , 33 , 36) ; margin-right: 10px ; margin-top: 0px ; margin-bottom: 0px&quot;&gt;V&lt;/div&gt;&lt;div class=&quot;lr-fy-eq-elem lr-fy-eq-add&quot; style=&quot;font-size: 15px ; display: inline-block ; position: relative ; transition: all 0.05s ease-in-out 0s ; color: rgb(189 , 193 , 198) ; font-family: &amp;#34;stixgeneral&amp;#34; , &amp;#34;georgia&amp;#34; ; background-color: rgb(32 , 33 , 36) ; margin-left: 0.2em ; margin-right: 0.2em&quot;&gt;=&lt;/div&gt;&lt;div class=&quot;lr-fy-eq-elem eiuJYe&quot; style=&quot;font-size: 15px ; display: inline-block ; position: relative ; transition: all 0.05s ease-in-out 0s ; color: rgb(189 , 193 , 198) ; font-family: &amp;#34;stixgeneral&amp;#34; , &amp;#34;georgia&amp;#34; ; background-color: rgb(32 , 33 , 36) ; margin-left: 5px ; vertical-align: middle ; margin-top: 0px ; margin-bottom: 0px&quot;&gt;&lt;div class=&quot;lr-fy-eq-elem&quot; style=&quot;display: inline-block ; position: relative ; transition: all 0.05s ease-in-out 0s&quot;&gt;&lt;div class=&quot;lr-fy-eq-elem&quot; style=&quot;display: inline-block ; position: relative ; transition: all 0.05s ease-in-out 0s ; vertical-align: middle&quot;&gt;&lt;div class=&quot;lr-fy-ecv lr-fy-eq-elem&quot; style=&quot;display: inline-block ; position: relative ; transition: all 0.05s ease-in-out 0s ; font-family: &amp;#34;stixgeneral&amp;#34; , &amp;#34;times&amp;#34; , &amp;#34;times new roman&amp;#34; , serif&quot;&gt;4&lt;/div&gt;&lt;div class=&quot;lr-fy-eq-add&quot; style=&quot;width: 13.4943px ; height: 1px ; background-color: rgb(232 , 234 , 237) ; margin-top: 2px ; margin-bottom: 2px&quot;&gt;&lt;/div&gt;&lt;div class=&quot;lr-fy-ecv lr-fy-eq-elem&quot; style=&quot;display: inline-block ; position: relative ; transition: all 0.05s ease-in-out 0s ; font-family: &amp;#34;stixgeneral&amp;#34; , &amp;#34;times&amp;#34; , &amp;#34;times new roman&amp;#34; , serif&quot;&gt;3&lt;/div&gt;&lt;/div&gt;&lt;div class=&quot;lr-fy-eq-elem lr-fy-eq-add&quot; style=&quot;display: inline-block ; position: relative ; transition: all 0.05s ease-in-out 0s ; margin-left: 0.2em&quot;&gt;&lt;/div&gt;&lt;div class=&quot;lr-fy-ecl lr-fy-eq-elem&quot; style=&quot;display: inline-block ; position: relative ; transition: all 0.05s ease-in-out 0s ; font-style: italic&quot;&gt;Ï€&lt;/div&gt;&lt;/div&gt;&lt;div class=&quot;lr-fy-eq-elem lr-fy-eq-add&quot; style=&quot;display: inline-block ; position: relative ; transition: all 0.05s ease-in-out 0s ; margin-left: 0.2em&quot;&gt;&lt;/div&gt;&lt;div class=&quot;lr-fy-eq-elem&quot; style=&quot;display: inline-block ; position: relative ; transition: all 0.05s ease-in-out 0s&quot;&gt;&lt;div class=&quot;lr-fy-el lr-fy-eq-elem&quot; style=&quot;display: inline-block ; position: relative ; transition: all 0.05s ease-in-out 0s ; margin: -4px ; padding: 4px ; font-style: italic ; cursor: pointer&quot;&gt;r&lt;/div&gt;&lt;div class=&quot;lr-fy-ecv lr-fy-eq-elem&quot; style=&quot;display: inline-block ; position: relative ; transition: all 0.05s ease-in-out 0s ; font-family: &amp;#34;stixgeneral&amp;#34; , &amp;#34;times&amp;#34; , &amp;#34;times new roman&amp;#34; , serif ; margin-left: 0.15em ; vertical-align: top&quot;&gt;3&lt;/div&gt;&lt;/div&gt;&lt;/div&gt;" style="rounded=1;whiteSpace=wrap;html=1;absoluteArcSize=1;arcSize=14;strokeWidth=2;" parent="1" vertex="1">
                    <mxGeometry x="300" y="460" width="100" height="100" as="geometry"/>
                </mxCell>
                <mxCell id="10" style="edgeStyle=none;html=1;" parent="1" source="5" target="6" edge="1">
                    <mxGeometry relative="1" as="geometry"/>
                </mxCell>
                <mxCell id="5" value="the radius" style="shape=parallelogram;html=1;strokeWidth=2;perimeter=parallelogramPerimeter;whiteSpace=wrap;rounded=1;arcSize=12;size=0.23;" parent="1" vertex="1">
                    <mxGeometry x="300" y="600" width="100" height="60" as="geometry"/>
                </mxCell>
                <mxCell id="6" value="Stop" style="strokeWidth=2;html=1;shape=mxgraph.flowchart.terminator;whiteSpace=wrap;" parent="1" vertex="1">
                    <mxGeometry x="300" y="700" width="100" height="60" as="geometry"/>
                </mxCell>
            </root>
        </mxGraphModel>
    </diagram>
</mxfile>